<?xml version="1.0" encoding="UTF-8" standalone="no"?>
<!-- Created with Inkscape (http://www.inkscape.org/) -->

<svg
   width="210mm"
   height="297mm"
   viewBox="0 0 210 297"
   version="1.1"
   id="svg5"
   inkscape:version="1.2.1 (9c6d41e410, 2022-07-14)"
   sodipodi:docname="рисунок.svg"
   xmlns:inkscape="http://www.inkscape.org/namespaces/inkscape"
   xmlns:sodipodi="http://sodipodi.sourceforge.net/DTD/sodipodi-0.dtd"
   xmlns="http://www.w3.org/2000/svg"
   xmlns:svg="http://www.w3.org/2000/svg">
  <sodipodi:namedview
     id="namedview7"
     pagecolor="#ffffff"
     bordercolor="#000000"
     borderopacity="0.25"
     inkscape:showpageshadow="2"
     inkscape:pageopacity="0.0"
     inkscape:pagecheckerboard="0"
     inkscape:deskcolor="#d1d1d1"
     inkscape:document-units="mm"
     showgrid="false"
     inkscape:zoom="0.50333193"
     inkscape:cx="397.3521"
     inkscape:cy="562.25322"
     inkscape:window-width="1366"
     inkscape:window-height="745"
     inkscape:window-x="-8"
     inkscape:window-y="-8"
     inkscape:window-maximized="1"
     inkscape:current-layer="layer2" />
  <defs
     id="defs2" />
  <g
     inkscape:groupmode="layer"
     id="layer2"
     inkscape:label="Слой 2">
    <rect
       style="fill:#00ffff;stroke-width:0.264583"
       id="rect836"
       width="206.58583"
       height="150.86548"
       x="-1.0513275"
       y="0.52566373" />
    <rect
       style="fill:#008000;stroke-width:0.264583"
       id="rect890"
       width="211.31682"
       height="57.297344"
       x="-2.1026549"
       y="148.23717" />
    <rect
       style="fill:#00ff00;stroke-width:0.264583"
       id="rect892"
       width="70.9646"
       height="96.722122"
       x="9.9876108"
       y="19.449558" />
    <rect
       style="fill:#00ff00;stroke-width:0.264583"
       id="rect946"
       width="47.8354"
       height="85.157516"
       x="144.03186"
       y="32.065487" />
    <rect
       style="fill:#803300;stroke-width:0.264583"
       id="rect948"
       width="16.821239"
       height="80.952209"
       x="38.373451"
       y="86.208855" />
    <rect
       style="fill:#803300;stroke-width:0.264583"
       id="rect1002"
       width="8.9362831"
       height="55.720356"
       x="170.8407"
       y="103.55575" />
    <circle
       style="fill:#ffff00;stroke-width:0.264583"
       id="path1056"
       cx="122.2168"
       cy="23.917698"
       r="16.558407" />
    <path
       style="fill:#008080;stroke-width:0.264583"
       d="m 144.03186,20.500885 c 7.35929,-12.6159292 5.25663,-18.3982302 24.70619,-13.6672567 19.44956,4.7309737 39.95044,8.4106197 35.21947,15.7699117 -4.73097,7.359292 -5.7823,13.141591 -20.50088,7.359292 -14.71859,-5.782301 -24.7062,3.153981 -31.01416,0.525663 -6.30797,-2.628317 -8.41062,-9.98761 -8.41062,-9.98761 z"
       id="path1058" />
  </g>
  <g
     inkscape:label="Слой 1"
     inkscape:groupmode="layer"
     id="layer1">
    <path
       style="fill:#ffff00;stroke-width:0.264583"
       d="M 41.527433,59.925664 C 16.821239,42.053097 19.975221,23.129203 33.642477,11.564602 47.309735,0 64.656636,4.2053097 70.438938,15.244248 76.221237,26.283185 73.592919,52.566371 67.284954,56.246016 60.976991,59.925664 49.938053,67.81062 49.938053,67.81062 Z"
       id="path113" />
    <path
       style="fill:#ffff00;stroke-width:0.264583"
       d="M 50.463717,68.336283 C 39.424779,77.798228 41.00177,78.849558 41.00177,78.849558 l 5.256635,-0.525664 6.833629,-2.102657 2.628318,2.628321 7.359293,-1.05133 z"
       id="path169" />
    <path
       style="fill:#000000;stroke-width:0.264583"
       d="M 52.566371,68.861947 91.465486,78.849558 78.849558,136.1469 52.040707,157.69911 v -4.73097 L 75.695574,135.09557 86.734511,80.952212 Z"
       id="path171" />
    <circle
       style="fill:#000000;stroke-width:0.264583"
       id="path279"
       cx="165.58406"
       cy="96.722122"
       r="29.962833" />
    <ellipse
       style="fill:#ffffff;stroke-width:0.332752"
       id="path281"
       cx="165.84689"
       cy="96.722115"
       rx="23.9177"
       ry="23.129204" />
    <path
       style="fill:#000000;stroke-width:0.264583"
       d="m 161.90442,97.247786 2.10266,-21.026549 4.20531,22.603539 z"
       id="path443" />
    <rect
       style="fill:#000000;stroke-width:0.264583"
       id="rect497"
       width="5.7823009"
       height="7.359292"
       x="162.43008"
       y="59.925663" />
    <rect
       style="fill:#000000;stroke-width:0.264583"
       id="rect499"
       width="16.821239"
       height="9.9876108"
       x="155.59647"
       y="50.98938" />
    <rect
       style="fill:#aa4400;stroke-width:0.264583"
       id="rect501"
       width="68.861946"
       height="32.065487"
       x="127.21062"
       y="147.7115" />
    <rect
       style="fill:#2b1100;stroke-width:0.264583"
       id="rect555"
       width="68.336281"
       height="8.4106197"
       x="127.73628"
       y="178.20001" />
    <rect
       style="fill:#000000;stroke-width:0.264583"
       id="rect609"
       width="7.8849554"
       height="13.667256"
       x="132.46725"
       y="187.13628" />
    <rect
       style="fill:#000000;stroke-width:0.264583"
       id="rect611"
       width="7.359292"
       height="14.718584"
       x="182.93097"
       y="185.03363" />
    <rect
       style="fill:#000000;stroke-width:0.264583"
       id="rect667"
       width="69.387611"
       height="3.679646"
       x="126.68496"
       y="159.80177" />
    <rect
       style="fill:#000000;stroke-width:0.264583"
       id="rect669"
       width="67.284958"
       height="2.1026549"
       x="127.73628"
       y="173.46902" />
    <rect
       style="fill:#008000;stroke-width:0.264583"
       id="rect671"
       width="206.06018"
       height="70.438942"
       x="0"
       y="223.93274" />
    <path
       style="fill:#4d4d4d;stroke-width:0.264583"
       d="M 0,228.66371 206.06017,230.2407 204.48318,205.00885 3.6796461,199.75221 Z"
       id="path725" />
    <path
       style="fill:#4d4d4d;stroke-width:0.264583"
       d="m 47.309735,204.48318 53.617695,-87.26017 26.80885,9.98761 -50.989379,82.00354 z"
       id="path781" />
  </g>
</svg>
